<svg xmlns="http://www.w3.org/2000/svg" viewBox="0 0 512 512">
  <rect width="512" height="512" rx="112" fill="#25D366"/>
  <path fill="#fff" d="M256 96c-88 0-160 70-160 156 0 28 8 55 23 78l-24 86 89-23c22 12 47 18 72 18 88 0 160-70 160-156S344 96 256 96zm0 286c-23 0-46-6-65-18l-5-3-53 14 14-51-3-5c-13-20-20-43-20-67 0-74 60-134 132-134s132 60 132 134-60 130-132 130zm75-99c-4-2-24-12-28-13s-7-2-9 2-11 13-13 16-5 3-9 1-17-6-32-20c-12-11-20-25-22-29s0-6 2-8 4-5 6-7 3-3 4-6 1-5 0-7-9-22-13-30-7-6-9-7h-8c-3 0-7 1-11 5s-15 14-15 35 15 41 17 44 30 46 73 65c10 4 18 7 24 9 10 3 19 3 26 2 8-1 24-10 27-19s4-17 3-19-4-3-8-5z"/>
</svg>
